<?xml version="1.0" encoding="UTF-8"?>
<svg version="1.1" xmlns="http://www.w3.org/2000/svg" width="512" height="512">
<path d="M0 0 C3.2437179 2.88632788 6.33636984 5.90756822 9.37890625 9.00390625 C10.11496094 9.74125 10.85101563 10.47859375 11.609375 11.23828125 C38.04243331 39.30691802 48.70127349 81.46561567 48.44140625 119.06640625 C48.43689453 120.31357422 48.43238281 121.56074219 48.42773438 122.84570312 C48.41603788 125.89848846 48.39964711 128.95117123 48.37890625 132.00390625 C48.93650635 132.03830811 49.49410645 132.07270996 50.06860352 132.1081543 C71.27303561 133.51307045 89.31465232 137.95224744 104.37890625 154.00390625 C111.36759774 162.90346367 115.91458585 173.60870978 116.37890625 185.00390625 C116.45625 186.65326172 116.45625 186.65326172 116.53515625 188.3359375 C116.89372125 202.84287982 114.32311826 215.17250554 106.19140625 227.25390625 C95.45781993 237.74896843 82.15087215 239.41877826 67.72265625 239.65625 C66.35174706 239.68807473 64.98085709 239.72073614 63.60998535 239.75413513 C58.86662756 239.8623107 54.12297684 239.93511734 49.37890625 240.00390625 C48.48324951 240.01733315 47.58759277 240.03076004 46.66479492 240.04459381 C32.16175236 240.25960454 17.65824435 240.40514667 3.15423584 240.53613281 C-1.20721482 240.57644512 -5.56862443 240.62048773 -9.93003845 240.66456032 C-33.82754465 240.90507099 -57.72230334 241.08100896 -81.62109375 241.00390625 C-81.79365189 241.55711044 -81.96621002 242.11031464 -82.14399719 242.68028259 C-83.88354034 248.09575347 -85.95558495 253.19562533 -88.4140625 258.3203125 C-88.94040031 259.433209 -88.94040031 259.433209 -89.47737122 260.56858826 C-90.58298783 262.90350325 -91.69564253 265.23497991 -92.80859375 267.56640625 C-93.56622641 269.16318797 -94.32339202 270.76019138 -95.08007812 272.35742188 C-96.92170313 276.24216276 -98.76964152 280.12383999 -100.62109375 284.00390625 C-99.99326492 283.99280319 -99.3654361 283.98170013 -98.71858215 283.97026062 C-92.18126661 283.85960144 -85.64421729 283.78421153 -79.10620117 283.72924805 C-76.66663811 283.70411129 -74.2271503 283.66999679 -71.7878418 283.62670898 C-68.28024729 283.56602396 -64.77364885 283.53768725 -61.265625 283.515625 C-60.17586868 283.48981857 -59.08611237 283.46401215 -57.96333313 283.43742371 C-50.39924154 283.43462497 -50.39924154 283.43462497 -46.45581055 286.31958008 C-44.13490631 289.71523439 -43.62109375 291.89395777 -43.62109375 296.00390625 C-45.83636313 301.42857649 -49.31651061 305.71373398 -52.93359375 310.25390625 C-54.20065942 311.86317214 -55.46758255 313.47255027 -56.734375 315.08203125 C-57.38100098 315.89994141 -58.02762695 316.71785156 -58.69384766 317.56054688 C-61.69005108 321.35912857 -64.65474798 325.18199684 -67.62109375 329.00390625 C-68.78369629 330.49882071 -69.9464573 331.99361195 -71.109375 333.48828125 C-73.48271898 336.53962883 -75.85499494 339.59180283 -78.2265625 342.64453125 C-84.89133184 351.22192555 -91.57486162 359.78383076 -98.29443359 368.31835938 C-100.11115755 370.62654159 -101.92584142 372.9363231 -103.74023438 375.24633789 C-104.65646997 376.41252956 -105.57313267 377.57838581 -106.49023438 378.74389648 C-108.82794945 381.71564591 -111.15829538 384.69273508 -113.4765625 387.6796875 C-115.75440377 390.6112993 -118.05015498 393.52768145 -120.36621094 396.42919922 C-121.54454206 397.9078443 -122.712111 399.39504762 -123.87890625 400.8828125 C-124.55695313 401.70652344 -125.235 402.53023438 -125.93359375 403.37890625 C-126.50722656 404.08789062 -127.08085937 404.796875 -127.671875 405.52734375 C-129.62109375 407.00390625 -129.62109375 407.00390625 -132.6640625 407.41796875 C-135.97114705 406.95488954 -136.64382498 406.58234614 -138.62109375 404.00390625 C-140.13121522 396.18946116 -137.60750841 387.59745629 -136.03125 379.97265625 C-135.76384151 378.64667834 -135.49720804 377.32054392 -135.23130798 375.9942627 C-134.67640854 373.23648721 -134.11532497 370.48007575 -133.54907227 367.72460938 C-132.82301761 364.19117756 -132.10804747 360.6556206 -131.39704227 357.119133 C-130.71640794 353.73620276 -130.03026 350.35439808 -129.34375 346.97265625 C-128.9577639 345.06655579 -128.9577639 345.06655579 -128.5639801 343.12194824 C-128.32380661 341.9531311 -128.08363312 340.78431396 -127.83618164 339.58007812 C-127.62522354 338.54878784 -127.41426544 337.51749756 -127.19691467 336.45495605 C-126.62109375 334.00390625 -126.62109375 334.00390625 -125.62109375 332.00390625 C-126.43684372 332.0127887 -127.25259369 332.02167114 -128.09306335 332.03082275 C-135.78801595 332.11103535 -143.48276529 332.1719042 -151.17802715 332.21115494 C-155.13408458 332.23201277 -159.089796 332.26029661 -163.0456543 332.30566406 C-166.86470239 332.34918746 -170.68341808 332.37305694 -174.50269508 332.38341522 C-175.95835413 332.39079505 -177.41399537 332.40520645 -178.86951256 332.42682648 C-180.91169642 332.45594901 -182.95251429 332.45985889 -184.99487305 332.45800781 C-186.1562529 332.46689026 -187.31763275 332.47577271 -188.51420593 332.48492432 C-192.31509908 331.89645818 -193.96648371 330.75199799 -196.62109375 328.00390625 C-198.27797143 319.05111833 -193.85736752 310.63140984 -190.62109375 302.44140625 C-189.99745236 300.83155512 -189.37491443 299.22127612 -188.75341797 297.6105957 C-186.73441705 292.39837082 -184.68102864 287.20006692 -182.62109375 282.00390625 C-182.25520142 281.07989014 -181.88930908 280.15587402 -181.5123291 279.20385742 C-176.59255408 266.78613808 -171.62558186 254.38771103 -166.62109375 242.00390625 C-167.28109375 242.33390625 -167.94109375 242.66390625 -168.62109375 243.00390625 C-171.53125262 243.16588134 -174.41915502 243.26462341 -177.33203125 243.3203125 C-178.7517498 243.35175606 -178.7517498 243.35175606 -180.20014954 243.38383484 C-183.46536558 243.45211799 -186.73064376 243.51045287 -189.99609375 243.56640625 C-191.13615875 243.58658813 -192.27622375 243.60677002 -193.45083618 243.62756348 C-218.79514339 244.05742367 -244.14377486 244.17445237 -269.49127197 244.2350769 C-274.02969348 244.24617886 -278.56801087 244.26404235 -283.10638428 244.28762817 C-288.54679355 244.31520409 -293.98703419 244.32726276 -299.42751122 244.32804298 C-301.45434066 244.33066725 -303.48117093 244.33834996 -305.50795937 244.35150719 C-323.1647082 244.45942475 -339.48134257 243.06235422 -352.99609375 230.31640625 C-363.18936162 219.35414386 -367.31969048 206.34088837 -366.90625 191.45703125 C-365.47454149 174.11962963 -360.78550491 158.68583003 -347.23828125 146.9375 C-331.3231125 135.09067824 -308.96346581 130.74767431 -289.43359375 133.50390625 C-288.50546875 133.66890625 -287.57734375 133.83390625 -286.62109375 134.00390625 C-286.67330078 133.02164063 -286.67330078 133.02164063 -286.7265625 132.01953125 C-287.23777961 114.78421165 -279.85506425 98.83904036 -268.62109375 86.00390625 C-268.09128906 85.33230469 -267.56148438 84.66070312 -267.015625 83.96875 C-254.84407461 68.9639171 -236.57635514 61.73209878 -217.87109375 59.25390625 C-208.75169335 58.5257412 -199.69788766 59.00331479 -190.62109375 60.00390625 C-190.31558594 58.94816406 -190.01007813 57.89242187 -189.6953125 56.8046875 C-180.71270503 27.19798619 -163.09323606 0.30858061 -135.62109375 -14.99609375 C-94.63795547 -36.39839929 -35.35883965 -30.15358339 0 0 Z " fill="#E3E9ED" transform="translate(383.62109375,51.99609375)"/>
<path d="M0 0 C0.62267719 10.63163642 -0.96351352 19.68460754 -7.9609375 27.9921875 C-11.27935286 31.25974592 -15.00784762 33.64029753 -19 36 C-19.99 36.66 -20.98 37.32 -22 38 C-19.56673895 39.11435418 -17.12896657 40.21637635 -14.6875 41.3125 C-13.68106445 41.7755957 -13.68106445 41.7755957 -12.65429688 42.24804688 C-1.93753126 47.02782497 7.83917468 48.53061912 19.5625 48.4375 C20.22130157 48.43479095 20.88010315 48.43208191 21.55886841 48.42929077 C37.13775348 48.33234584 50.46240412 45.24108954 64.9609375 39.85546875 C67.922098 39.02192871 69.19630433 38.87437834 72 40 C74.91842397 57.87534679 73.02777137 75.07302539 62.8125 90.25 C52.07891368 100.74506218 38.7719659 102.41487201 24.34375 102.65234375 C22.97284081 102.68416848 21.60195084 102.71682989 20.2310791 102.75022888 C15.48772131 102.85840445 10.74407059 102.93121109 6 103 C5.10434326 103.0134269 4.20868652 103.02685379 3.28588867 103.04068756 C-11.21715389 103.25569829 -25.7206619 103.40124042 -40.22467041 103.53222656 C-44.58612107 103.57253887 -48.94753068 103.61658148 -53.3089447 103.66065407 C-77.2064509 103.90116474 -101.10120959 104.07710271 -125 104 C-125.17255814 104.55320419 -125.34511627 105.10640839 -125.52290344 105.67637634 C-127.26244659 111.09184722 -129.3344912 116.19171908 -131.79296875 121.31640625 C-132.31930656 122.42930275 -132.31930656 122.42930275 -132.85627747 123.56468201 C-133.96189408 125.899597 -135.07454878 128.23107366 -136.1875 130.5625 C-136.94513266 132.15928172 -137.70229827 133.75628513 -138.45898438 135.35351562 C-140.30060938 139.23825651 -142.14854777 143.11993374 -144 147 C-143.37217117 146.98889694 -142.74434235 146.97779388 -142.0974884 146.96635437 C-135.56017286 146.85569519 -129.02312354 146.78030528 -122.48510742 146.7253418 C-120.04554436 146.70020504 -117.60605655 146.66609054 -115.16674805 146.62280273 C-111.65915354 146.56211771 -108.1525551 146.533781 -104.64453125 146.51171875 C-103.55477493 146.48591232 -102.46501862 146.4601059 -101.34223938 146.43351746 C-93.77814779 146.43071872 -93.77814779 146.43071872 -89.8347168 149.31567383 C-87.51381256 152.71132814 -87 154.89005152 -87 159 C-89.21526938 164.42467024 -92.69541686 168.70982773 -96.3125 173.25 C-97.57956567 174.85926589 -98.8464888 176.46864402 -100.11328125 178.078125 C-100.75990723 178.89603516 -101.4065332 179.71394531 -102.07275391 180.55664062 C-105.06895733 184.35522232 -108.03365423 188.17809059 -111 192 C-112.16260254 193.49491446 -113.32536355 194.9897057 -114.48828125 196.484375 C-116.86162523 199.53572258 -119.23390119 202.58789658 -121.60546875 205.640625 C-128.27023809 214.2180193 -134.95376787 222.77992451 -141.67333984 231.31445312 C-143.4900638 233.62263534 -145.30474767 235.93241685 -147.11914062 238.24243164 C-148.03537622 239.40862331 -148.95203892 240.57447956 -149.86914062 241.73999023 C-152.2068557 244.71173966 -154.53720163 247.68882883 -156.85546875 250.67578125 C-159.13331002 253.60739305 -161.42906123 256.5237752 -163.74511719 259.42529297 C-164.92344831 260.90393805 -166.09101725 262.39114137 -167.2578125 263.87890625 C-167.93585938 264.70261719 -168.61390625 265.52632813 -169.3125 266.375 C-169.88613281 267.08398438 -170.45976562 267.79296875 -171.05078125 268.5234375 C-173 270 -173 270 -176.04296875 270.4140625 C-179.3500533 269.95098329 -180.02273123 269.57843989 -182 267 C-183.51012147 259.18555491 -180.98641466 250.59355004 -179.41015625 242.96875 C-179.14274776 241.64277209 -178.87611429 240.31663767 -178.61021423 238.99035645 C-178.05531479 236.23258096 -177.49423122 233.4761695 -176.92797852 230.72070312 C-176.20192386 227.18727131 -175.48695372 223.65171435 -174.77594852 220.11522675 C-174.09531419 216.73229651 -173.40916625 213.35049183 -172.72265625 209.96875 C-172.33667015 208.06264954 -172.33667015 208.06264954 -171.94288635 206.11804199 C-171.70271286 204.94922485 -171.46253937 203.78040771 -171.21508789 202.57617188 C-171.00412979 201.54488159 -170.79317169 200.51359131 -170.57582092 199.4510498 C-170 197 -170 197 -169 195 C-169.81574997 195.00888245 -170.63149994 195.01776489 -171.4719696 195.0269165 C-179.1669222 195.1071291 -186.86167154 195.16799795 -194.5569334 195.20724869 C-198.51299083 195.22810652 -202.46870225 195.25639036 -206.42456055 195.30175781 C-210.24360864 195.34528121 -214.06232433 195.36915069 -217.88160133 195.37950897 C-219.33726038 195.3868888 -220.79290162 195.4013002 -222.24841881 195.42292023 C-224.29060267 195.45204276 -226.33142054 195.45595264 -228.3737793 195.45410156 C-229.53515915 195.46298401 -230.696539 195.47186646 -231.89311218 195.48101807 C-235.69400533 194.89255193 -237.34538996 193.74809174 -240 191 C-241.65687768 182.04721208 -237.23627377 173.62750359 -234 165.4375 C-233.37635861 163.82764887 -232.75382068 162.21736987 -232.13232422 160.60668945 C-230.1133233 155.39446457 -228.05993489 150.19616067 -226 145 C-225.63410767 144.07598389 -225.26821533 143.15196777 -224.89123535 142.19995117 C-219.97146033 129.78223183 -215.00448811 117.38380478 -210 105 C-210.99 105.495 -210.99 105.495 -212 106 C-214.91015887 106.16197509 -217.79806127 106.26071716 -220.7109375 106.31640625 C-222.13065605 106.34784981 -222.13065605 106.34784981 -223.57905579 106.37992859 C-226.84427183 106.44821174 -230.10955001 106.50654662 -233.375 106.5625 C-235.0850975 106.59277283 -235.0850975 106.59277283 -236.82974243 106.62365723 C-262.17404964 107.05351742 -287.52268111 107.17054612 -312.87017822 107.23117065 C-317.40859973 107.24227261 -321.94691712 107.2601361 -326.48529053 107.28372192 C-331.9256998 107.31129784 -337.36594044 107.32335651 -342.80641747 107.32413673 C-344.83324691 107.326761 -346.86007718 107.33444371 -348.88686562 107.34760094 C-366.54361445 107.4555185 -382.86024882 106.05844797 -396.375 93.3125 C-406.50455377 82.41875838 -410.54813495 69.72583813 -410.10546875 54.94921875 C-410.07066406 54.30597656 -410.03585937 53.66273438 -410 53 C-404.67094716 53.45940111 -399.59553781 54.26287899 -394.375 55.4375 C-382.58313647 57.99386574 -371.29771717 59.19649479 -359.25 59.3125 C-358.2086792 59.33014404 -357.1673584 59.34778809 -356.09448242 59.3659668 C-348.94966404 59.3597347 -342.77850508 58.22423963 -336 56 C-334.8346875 55.62359375 -333.669375 55.2471875 -332.46875 54.859375 C-324.36856152 51.83246246 -316.5033312 48.13032801 -310.06640625 42.2265625 C-306.42633219 40.06591362 -303.03259967 41.74043943 -299.140625 42.71875 C-297.22324744 43.23696015 -295.3065699 43.75776779 -293.390625 44.28125 C-270.40884319 49.15296412 -243.83784361 47.34177881 -223 36 C-219.43638036 33.59467997 -216.04521105 31.04521105 -213 28 C-207.94308197 28.42716823 -203.93151002 29.70646991 -199.3125 31.75 C-167.27490126 45.15995381 -126.73028132 45.80588825 -93 39 C-92.33516602 38.87141602 -91.67033203 38.74283203 -90.98535156 38.61035156 C-59.99518661 32.39967597 -29.3462589 19.22376854 -3.56640625 0.9609375 C-2 0 -2 0 0 0 Z " fill="#C2D0C2" transform="translate(427,189)"/>
<path d="M0 0 C-6.35862863 14.80977808 -13.17833529 29.39951392 -20 44 C-19.05825676 43.98334541 -19.05825676 43.98334541 -18.0974884 43.96635437 C-11.56017286 43.85569519 -5.02312354 43.78030528 1.51489258 43.7253418 C3.95445564 43.70020504 6.39394345 43.66609054 8.83325195 43.62280273 C12.34084646 43.56211771 15.8474449 43.533781 19.35546875 43.51171875 C20.44522507 43.48591232 21.53498138 43.4601059 22.65776062 43.43351746 C30.22185221 43.43071872 30.22185221 43.43071872 34.1652832 46.31567383 C36.48618744 49.71132814 37 51.89005152 37 56 C34.78473062 61.42467024 31.30458314 65.70982773 27.6875 70.25 C26.42043433 71.85926589 25.1535112 73.46864402 23.88671875 75.078125 C23.24009277 75.89603516 22.5934668 76.71394531 21.92724609 77.55664062 C18.93104267 81.35522232 15.96634577 85.17809059 13 89 C11.83739746 90.49491446 10.67463645 91.9897057 9.51171875 93.484375 C7.13837477 96.53572258 4.76609881 99.58789658 2.39453125 102.640625 C-4.27023809 111.2180193 -10.95376787 119.77992451 -17.67333984 128.31445312 C-19.4900638 130.62263534 -21.30474767 132.93241685 -23.11914062 135.24243164 C-24.03537622 136.40862331 -24.95203892 137.57447956 -25.86914062 138.73999023 C-28.2068557 141.71173966 -30.53720163 144.68882883 -32.85546875 147.67578125 C-35.13331002 150.60739305 -37.42906123 153.5237752 -39.74511719 156.42529297 C-40.92344831 157.90393805 -42.09101725 159.39114137 -43.2578125 160.87890625 C-43.93585938 161.70261719 -44.61390625 162.52632812 -45.3125 163.375 C-45.88613281 164.08398438 -46.45976562 164.79296875 -47.05078125 165.5234375 C-49 167 -49 167 -52.04296875 167.4140625 C-55.3500533 166.95098329 -56.02273123 166.57843989 -58 164 C-59.51012147 156.18555491 -56.98641466 147.59355004 -55.41015625 139.96875 C-55.14274776 138.64277209 -54.87611429 137.31663767 -54.61021423 135.99035645 C-54.05531479 133.23258096 -53.49423122 130.4761695 -52.92797852 127.72070312 C-52.20192386 124.18727131 -51.48695372 120.65171435 -50.77594852 117.11522675 C-50.09531419 113.73229651 -49.40916625 110.35049183 -48.72265625 106.96875 C-48.33667015 105.06264954 -48.33667015 105.06264954 -47.94288635 103.11804199 C-47.58262611 101.36481628 -47.58262611 101.36481628 -47.21508789 99.57617188 C-47.00412979 98.54488159 -46.79317169 97.51359131 -46.57582092 96.4510498 C-46 94 -46 94 -45 92 C-45.81574997 92.00888245 -46.63149994 92.01776489 -47.4719696 92.0269165 C-55.1669222 92.1071291 -62.86167154 92.16799795 -70.5569334 92.20724869 C-74.51299083 92.22810652 -78.46870225 92.25639036 -82.42456055 92.30175781 C-86.24360864 92.34528121 -90.06232433 92.36915069 -93.88160133 92.37950897 C-95.33726038 92.3868888 -96.79290162 92.4013002 -98.24841881 92.42292023 C-100.29060267 92.45204276 -102.33142054 92.45595264 -104.3737793 92.45410156 C-105.53515915 92.46298401 -106.696539 92.47186646 -107.89311218 92.48101807 C-111.69400533 91.89255193 -113.34538996 90.74809174 -116 88 C-117.65687768 79.04721208 -113.23627377 70.62750359 -110 62.4375 C-109.37635861 60.82764887 -108.75382068 59.21736987 -108.13232422 57.60668945 C-106.1133233 52.39446457 -104.05993489 47.19616067 -102 42 C-101.63410767 41.07598389 -101.26821533 40.15196777 -100.89123535 39.19995117 C-95.97146033 26.78223183 -91.00448811 14.38380478 -86 2 C-78.90739856 1.17816396 -71.88275767 0.80461719 -64.74609375 0.68359375 C-63.68753677 0.66281265 -62.6289798 0.64203156 -61.53834534 0.62062073 C-59.3020483 0.57759548 -57.06571286 0.53652632 -54.8293457 0.49731445 C-51.49874971 0.43858013 -48.16833928 0.37315564 -44.83789062 0.30664062 C-29.89081532 0.02076873 -14.94956436 -0.05534398 0 0 Z " fill="#FDCA18" transform="translate(303,292)"/>
<path d="M0 0 C4.16356782 6.24535173 3.14011453 14.76191778 3.01953125 22.046875 C3.00540695 22.97993469 2.99128265 23.91299438 2.97673035 24.87432861 C2.94381809 26.8375022 2.90749755 28.80062135 2.86791992 30.76367188 C2.81291018 33.72789727 2.78415678 36.69166577 2.75585938 39.65625 C2.34039292 66.09710708 2.34039292 66.09710708 -6.97265625 75.41015625 C-14.67903509 81.4535015 -23.49411356 82.10068159 -33 81 C-39.45991311 79.24162482 -45.36782264 75.76376763 -49.25390625 70.20703125 C-53.41718097 62.47523534 -53.4472282 53.22975645 -51.140625 44.89453125 C-46.05066958 33.25361468 -35.37400675 23.47380686 -25.71484375 15.46875 C-23.89418354 13.90936904 -22.27515238 12.23780482 -20.625 10.5 C-15.32336115 5.08816543 -7.88287116 -2.36486135 0 0 Z " fill="#52C0EE" transform="translate(417,297)"/>
<path d="M0 0 C1.8125 0.75 1.8125 0.75 2.8125 2.75 C4.07864845 12.50939183 4.02958141 22.42737934 4.05273438 32.25195312 C4.06248603 34.74642736 4.09365 37.24009098 4.125 39.734375 C4.21851922 53.84991645 3.38488134 67.00551908 -6.9375 77.5625 C-13.473901 81.96200067 -20.33734281 83.75330161 -28.1875 82.75 C-36.12792003 80.93278945 -42.6095221 77.58858556 -47.1484375 70.6484375 C-51.12133488 63.38968515 -50.61749956 55.68697744 -49.1875 47.75 C-46.67386338 39.47339162 -40.83076121 33.52826996 -34.89599609 27.48925781 C-33.0169448 25.57637393 -31.15983062 23.64325662 -29.30078125 21.7109375 C-7.38725183 -0.84425735 -7.38725183 -0.84425735 0 0 Z " fill="#52C0EE" transform="translate(188.1875,402.25)"/>
<path d="M0 0 C3.58726242 5.38089363 3.16025867 10.9255599 3.125 17.1875 C3.12016602 18.09371094 3.11533203 18.99992187 3.11035156 19.93359375 C3.08482477 22.9559664 3.04396887 25.97784149 3 29 C2.98743164 30.09393066 2.97486328 31.18786133 2.96191406 32.31494141 C2.50610797 64.62601221 2.50610797 64.62601221 -7.203125 74.48046875 C-12.88724614 79.28725815 -19.23693835 80.39396769 -26.46875 80.2734375 C-33.95997685 79.46420003 -40.59784615 76.64706189 -45.62890625 70.9765625 C-49.96989382 64.71861461 -50.9733578 57.45122176 -50 50 C-45.4063127 29.83400168 -23.3433334 12.22277602 -7 1 C-4.46578263 -0.26710868 -2.80561762 -0.28056176 0 0 Z " fill="#52C0EE" transform="translate(125,313)"/>
<path d="M0 0 C9.9 0 19.8 0 30 0 C26.62358277 10.1292517 26.62358277 10.1292517 24.65234375 14.57421875 C23.99927246 16.05474731 23.99927246 16.05474731 23.33300781 17.56518555 C22.87249023 18.59554932 22.41197266 19.62591309 21.9375 20.6875 C21.45506836 21.76878174 20.97263672 22.85006348 20.47558594 23.96411133 C19.47637056 26.20190344 18.47587568 28.43912466 17.47412109 30.67578125 C16.0547093 33.87662772 14.67289643 37.09114433 13.30078125 40.3125 C12.45083181 42.27096832 11.60058511 44.22930767 10.75 46.1875 C10.37480225 47.08879639 9.99960449 47.99009277 9.61303711 48.91870117 C6.81310443 55.27381551 3.31425608 59.84287196 -3 63 C-6.01135805 63.34556568 -8.09361171 63.57794337 -11 63 C-14.46568926 60.03972376 -15.88733844 58.30969064 -16.28125 53.73046875 C-15.97354181 49.64906151 -15.01560555 46.6720756 -13.5 42.875 C-12.94894519 41.47146154 -12.39817941 40.06780958 -11.84765625 38.6640625 C-11.55004395 37.91672852 -11.25243164 37.16939453 -10.94580078 36.39941406 C-9.58275726 32.94149158 -8.27895632 29.46185426 -6.96875 25.98364258 C-3.80126472 17.587257 -0.54992123 9.2433267 3 1 C2.01 0.67 1.02 0.34 0 0 Z " fill="#FEE269" transform="translate(227,293)"/>
<path d="M0 0 C2.62480634 2.54760615 3.18486576 4.63514564 3.38525391 8.25732422 C2.3116733 19.82903265 -4.06606828 32.02039763 -8.38623047 42.72753906 C-9.38589387 45.21460288 -10.36670315 47.70863185 -11.34765625 50.203125 C-11.9910477 51.80514573 -12.6355385 53.40672548 -13.28125 55.0078125 C-13.56786499 55.74428009 -13.85447998 56.48074768 -14.14978027 57.23953247 C-16.00415449 61.76103378 -17.99940164 64.90176521 -21.875 68.0625 C-25.32116056 67.98235673 -26.4306104 67.5068896 -28.875 65.0625 C-28.63751918 55.92862245 -26.20387849 47.05165104 -24.11914062 38.19482422 C-23.50183951 35.57032081 -22.8947014 32.94362263 -22.2890625 30.31640625 C-16.67092685 6.09608539 -16.67092685 6.09608539 -11.875 0.0625 C-7.99359257 -1.87820371 -4.01964621 -1.3107542 0 0 Z " fill="#FEE268" transform="translate(288.875,359.9375)"/>
<path d="M0 0 C1.67028468 -0.00817362 3.34055761 -0.0192784 5.01080322 -0.0333252 C7.37291839 -0.05112322 9.73465809 -0.0552209 12.09683228 -0.05523682 C12.80824371 -0.06237198 13.51965515 -0.06950714 14.25262451 -0.07685852 C17.92362191 -0.05996182 19.42640418 0.07984237 22.56948853 2.17523193 C22.75698853 5.30023193 22.75698853 5.30023193 22.56948853 8.17523193 C19.13048254 10.26857236 16.44634386 10.42338579 12.45571899 10.41815186 C11.22118988 10.42122849 9.98666077 10.42430511 8.71472168 10.42747498 C7.37203789 10.42057808 6.02935596 10.41331118 4.68667603 10.40570068 C3.30712934 10.40450809 1.92758184 10.40405589 0.54803467 10.40431213 C-2.33858344 10.40275012 -5.22507702 10.39448054 -8.11166382 10.38104248 C-11.81517942 10.36402115 -15.5185587 10.36022922 -19.22210884 10.36098766 C-22.06849473 10.36071607 -24.9148507 10.35523712 -27.76122665 10.34798622 C-29.12720387 10.34480073 -30.49318447 10.34283242 -31.85916519 10.34209251 C-33.76463283 10.33992952 -35.67008784 10.33039318 -37.57553101 10.32049561 C-38.6604483 10.31668381 -39.7453656 10.31287201 -40.86315918 10.3089447 C-43.43051147 10.17523193 -43.43051147 10.17523193 -45.43051147 9.17523193 C-45.55551147 6.30023193 -45.55551147 6.30023193 -45.43051147 3.17523193 C-42.9795498 0.72427026 -42.22715995 0.8870589 -38.84848022 0.76116943 C-37.87080688 0.72225586 -36.89313354 0.68334229 -35.88583374 0.64324951 C-34.80745239 0.61255371 -33.72907104 0.58185791 -32.61801147 0.55023193 C-31.49902466 0.51373535 -30.38003784 0.47723877 -29.22714233 0.43963623 C-19.48708342 0.16011441 -9.74374778 0.04508208 0 0 Z " fill="#FDB900" transform="translate(239.43051147460938,367.82476806640625)"/>
<path d="M0 0 C4.95 0 9.9 0 15 0 C12.91131242 4.41976606 10.8195502 8.83802754 8.72265625 13.25390625 C6.82284169 17.25626586 4.93761318 21.26518282 3.05859375 25.27734375 C2.0809047 27.35164524 1.10304318 29.42586546 0.125 31.5 C-0.3388208 32.49652588 -0.8026416 33.49305176 -1.28051758 34.51977539 C-1.72161865 35.45168701 -2.16271973 36.38359863 -2.6171875 37.34375 C-3.00503418 38.17068359 -3.39288086 38.99761719 -3.79248047 39.84960938 C-5.00567697 42.01010973 -6.04592795 43.47831046 -8 45 C-11.0625 44.875 -11.0625 44.875 -14 44 C-16 41 -16 41 -15.83618164 37.82006836 C-14.89632866 33.52638089 -13.43861491 29.86112954 -11.62109375 25.87890625 C-11.28956802 25.13414536 -10.9580423 24.38938446 -10.61647034 23.62205505 C-9.56502814 21.26509135 -8.50150551 18.91381487 -7.4375 16.5625 C-6.71859316 14.95674166 -6.00048592 13.35062508 -5.28320312 11.74414062 C-3.53135596 7.82522328 -1.76866022 3.91135639 0 0 Z " fill="#FDB900" transform="translate(282,293)"/>
<path d="M0 0 C2.6577887 2.09230174 4.42414819 3.71540751 5.8125 6.8125 C5.874375 7.534375 5.93625 8.25625 6 9 C6.12375 10.2375 6.2475 11.475 6.375 12.75 C6.30949828 17.75620281 4.15601652 21.22838685 1 25 C-1.80087185 27.29815126 -3.42865372 27.91667867 -7 28.4375 C-10.77306522 27.88726132 -12.32400737 26.67599263 -15 24 C-17.8912364 19.29286425 -17.73068208 14.35095461 -17 9 C-15.4448608 5.15242452 -13.62374212 2.0276015 -10.07421875 -0.21875 C-6.6505802 -1.50825605 -3.41268679 -1.05630782 0 0 Z " fill="#AFE5FD" transform="translate(98,352)"/>
<path d="M0 0 C3.5026115 2.77290077 4.7074024 4.25477181 5.44140625 8.6328125 C5.69208148 14.56815508 5.10709918 18.4488901 1 23 C-1.98570653 26.24162423 -4.18517816 27.2977431 -8.5 27.5625 C-11.99756086 27.38762196 -12.98490053 27.01038089 -16 24.9375 C-18.40973611 21.39820009 -18.92633479 19.27258236 -19 15 C-17.81705468 8.87019241 -15.51840047 4.16862263 -10.75 0.0625 C-6.88272829 -1.43167316 -3.91030149 -1.37964266 0 0 Z " fill="#AFE5FD" transform="translate(391,336)"/>
<path d="M0 0 C3.43823122 2.0928364 5.81169353 4.110997 7 8 C7.70241311 14.02068381 6.84154242 17.34705407 3.34765625 22.30078125 C0.35907535 26.06899195 -1.04777152 26.8790821 -5.9375 27.5 C-9.41596163 27.37669632 -10.01148339 26.99095988 -12.9375 24.6875 C-16.18663987 20.45377229 -16.34321446 17.23402057 -16 12 C-15.00804508 7.81348161 -13.65715572 4.75103511 -10.8125 1.5 C-7.08711612 -0.4868714 -4.13659626 -0.83736766 0 0 Z " fill="#AFE5FD" transform="translate(160,443)"/>
<path d="M0 0 C3.4375 0.8125 3.4375 0.8125 5.4375 2.8125 C5.92924102 7.07425551 5.73183299 9.28473049 3.625 13.0625 C2.903125 13.97 2.18125 14.8775 1.4375 15.8125 C0.98375 16.410625 0.53 17.00875 0.0625 17.625 C-2.46626186 19.47294136 -4.45930539 19.7491695 -7.5625 19.8125 C-10 18.3125 -10 18.3125 -11.5625 15.8125 C-11.5625 10.35612712 -9.85438645 7.07258835 -6.5625 2.8125 C-6.129375 2.173125 -5.69625 1.53375 -5.25 0.875 C-3.5625 -0.1875 -3.5625 -0.1875 0 0 Z " fill="#FEE267" transform="translate(241.5625,345.1875)"/>
</svg>
